<svg width="35" height="35" viewBox="0 0 35 35" fill="none" xmlns="http://www.w3.org/2000/svg">
<g clip-path="url(#clip0_4_886)">
<path fill-rule="evenodd" clip-rule="evenodd" d="M0.600101 17.7665L13.4995 31.2385C14.1995 31.7683 14.8182 31.7819 15.3538 31.2775C15.8912 30.7731 15.9031 30.1544 15.3912 29.4198L4.77448 18.3457L33.0559 18.7336C33.8269 18.6745 34.2192 18.2072 34.2329 17.3336C34.2466 16.4599 33.8672 15.982 33.0965 15.9018L4.80903 15.7025L15.7142 5.00521C16.2695 4.30728 16.278 3.68685 15.7397 3.14902C15.203 2.60952 14.6205 2.56583 13.9954 3.01969L0.62533 15.9273C0.501478 16.0501 0.403211 16.1963 0.336217 16.3573C0.269223 16.5184 0.234831 16.6911 0.235031 16.8655C0.226366 17.033 0.254571 17.2003 0.317656 17.3557C0.38074 17.5111 0.477166 17.6507 0.600124 17.7648L0.600101 17.7665Z" fill="black"/>
</g>
<defs>
<clipPath id="clip0_4_886">
<rect width="33.9994" height="33.9994" fill="white" transform="translate(0 33.9962) rotate(-89.2141)"/>
</clipPath>
</defs>
</svg>
