<svg width="277" height="31" viewBox="0 0 277 31" fill="none" xmlns="http://www.w3.org/2000/svg">
<path d="M0.533736 30V0.90909H12.5508C14.7288 0.90909 16.6085 1.33523 18.19 2.1875C19.7809 3.0303 21.0072 4.20928 21.869 5.72443C22.7307 7.23011 23.1616 8.98201 23.1616 10.9801C23.1616 12.9877 22.7212 14.7443 21.8406 16.25C20.9693 17.7462 19.7241 18.9062 18.1048 19.7301C16.4854 20.554 14.5631 20.9659 12.3377 20.9659H4.92294V15.4261H11.0309C12.0915 15.4261 12.9769 15.2415 13.6871 14.8722C14.4068 14.5028 14.9514 13.9867 15.3207 13.3239C15.69 12.6515 15.8746 11.8703 15.8746 10.9801C15.8746 10.0805 15.69 9.30398 15.3207 8.65057C14.9514 7.98769 14.4068 7.47633 13.6871 7.11648C12.9674 6.75663 12.082 6.5767 11.0309 6.5767H7.56499V30H0.533736ZM36.3825 30.4119C34.0908 30.4119 32.1211 29.9432 30.4734 29.0057C28.8351 28.0587 27.5709 26.7424 26.6808 25.0568C25.8001 23.3617 25.3597 21.3968 25.3597 19.1619C25.3597 16.9176 25.8001 14.9527 26.6808 13.267C27.5709 11.572 28.8351 10.2557 30.4734 9.31818C32.1211 8.37121 34.0908 7.89773 36.3825 7.89773C38.6741 7.89773 40.6391 8.37121 42.2773 9.31818C43.9251 10.2557 45.1893 11.572 46.07 13.267C46.9601 14.9527 47.4052 16.9176 47.4052 19.1619C47.4052 21.3968 46.9601 23.3617 46.07 25.0568C45.1893 26.7424 43.9251 28.0587 42.2773 29.0057C40.6391 29.9432 38.6741 30.4119 36.3825 30.4119ZM36.4251 25.1705C37.2584 25.1705 37.9639 24.9148 38.5415 24.4034C39.1192 23.892 39.5595 23.1818 39.8626 22.2727C40.1751 21.3636 40.3313 20.3125 40.3313 19.1193C40.3313 17.9072 40.1751 16.8466 39.8626 15.9375C39.5595 15.0284 39.1192 14.3182 38.5415 13.8068C37.9639 13.2955 37.2584 13.0398 36.4251 13.0398C35.5633 13.0398 34.8342 13.2955 34.2376 13.8068C33.6504 14.3182 33.2006 15.0284 32.8881 15.9375C32.5851 16.8466 32.4336 17.9072 32.4336 19.1193C32.4336 20.3125 32.5851 21.3636 32.8881 22.2727C33.2006 23.1818 33.6504 23.892 34.2376 24.4034C34.8342 24.9148 35.5633 25.1705 36.4251 25.1705ZM57.2276 24.2756L57.256 15.9943H58.2219L64.3583 8.18182H72.2276L63.1083 19.375H61.2759L57.2276 24.2756ZM50.9634 30V0.90909H57.9094V30H50.9634ZM64.5146 30L58.8043 20.9375L63.3782 16.0085L72.5401 30H64.5146ZM84.0138 30.4119C81.7317 30.4119 79.762 29.9621 78.1048 29.0625C76.457 28.1534 75.1881 26.8608 74.2979 25.1847C73.4173 23.4991 72.9769 21.4962 72.9769 19.1761C72.9769 16.9223 73.422 14.9527 74.3121 13.267C75.2023 11.572 76.457 10.2557 78.0763 9.31818C79.6957 8.37121 81.6038 7.89773 83.8008 7.89773C85.3538 7.89773 86.7743 8.1392 88.0621 8.62216C89.35 9.10511 90.4627 9.82008 91.4002 10.767C92.3377 11.714 93.0669 12.8835 93.5877 14.2756C94.1085 15.6581 94.369 17.2443 94.369 19.0341V20.767H75.4059V16.733H87.9059C87.8964 15.9943 87.7212 15.3362 87.3803 14.7585C87.0394 14.1809 86.5707 13.7311 85.9741 13.4091C85.387 13.0777 84.7099 12.9119 83.9428 12.9119C83.1663 12.9119 82.4703 13.0871 81.8548 13.4375C81.2392 13.7784 80.7515 14.2472 80.3917 14.8438C80.0318 15.4309 79.8424 16.0985 79.8235 16.8466V20.9517C79.8235 21.8419 79.9987 22.6231 80.3491 23.2955C80.6995 23.9583 81.1966 24.4744 81.8406 24.8438C82.4845 25.2131 83.2515 25.3977 84.1417 25.3977C84.7572 25.3977 85.3159 25.3125 85.8178 25.142C86.3197 24.9716 86.7506 24.7206 87.1104 24.3892C87.4703 24.0578 87.7402 23.6506 87.9201 23.1676L94.2979 23.3523C94.0328 24.7822 93.4504 26.0275 92.5508 27.0881C91.6606 28.1392 90.4911 28.9583 89.0423 29.5455C87.5934 30.1231 85.9173 30.4119 84.0138 30.4119ZM97.9165 30V8.18182H104.522V12.1875H104.763C105.218 10.8617 105.985 9.81534 107.064 9.0483C108.144 8.28125 109.432 7.89773 110.928 7.89773C112.443 7.89773 113.74 8.28598 114.82 9.0625C115.9 9.83902 116.586 10.8807 116.88 12.1875H117.107C117.514 10.8902 118.31 9.85322 119.493 9.0767C120.677 8.29072 122.074 7.89773 123.684 7.89773C125.748 7.89773 127.424 8.56061 128.712 9.88636C130 11.2027 130.644 13.0114 130.644 15.3125V30H123.698V16.9034C123.698 15.8144 123.418 14.9858 122.86 14.4176C122.301 13.84 121.577 13.5511 120.686 13.5511C119.73 13.5511 118.977 13.8636 118.428 14.4886C117.888 15.1042 117.618 15.9328 117.618 16.9744V30H110.942V16.8324C110.942 15.8191 110.667 15.0189 110.118 14.4318C109.569 13.8447 108.845 13.5511 107.945 13.5511C107.339 13.5511 106.804 13.6979 106.34 13.9915C105.876 14.2756 105.511 14.6828 105.246 15.2131C104.99 15.7434 104.863 16.3684 104.863 17.0881V30H97.9165ZM145.132 30.4119C142.841 30.4119 140.871 29.9432 139.223 29.0057C137.585 28.0587 136.321 26.7424 135.431 25.0568C134.55 23.3617 134.11 21.3968 134.11 19.1619C134.11 16.9176 134.55 14.9527 135.431 13.267C136.321 11.572 137.585 10.2557 139.223 9.31818C140.871 8.37121 142.841 7.89773 145.132 7.89773C147.424 7.89773 149.389 8.37121 151.027 9.31818C152.675 10.2557 153.939 11.572 154.82 13.267C155.71 14.9527 156.155 16.9176 156.155 19.1619C156.155 21.3968 155.71 23.3617 154.82 25.0568C153.939 26.7424 152.675 28.0587 151.027 29.0057C149.389 29.9432 147.424 30.4119 145.132 30.4119ZM145.175 25.1705C146.008 25.1705 146.714 24.9148 147.292 24.4034C147.869 23.892 148.31 23.1818 148.613 22.2727C148.925 21.3636 149.081 20.3125 149.081 19.1193C149.081 17.9072 148.925 16.8466 148.613 15.9375C148.31 15.0284 147.869 14.3182 147.292 13.8068C146.714 13.2955 146.008 13.0398 145.175 13.0398C144.313 13.0398 143.584 13.2955 142.988 13.8068C142.4 14.3182 141.951 15.0284 141.638 15.9375C141.335 16.8466 141.184 17.9072 141.184 19.1193C141.184 20.3125 141.335 21.3636 141.638 22.2727C141.951 23.1818 142.4 23.892 142.988 24.4034C143.584 24.9148 144.313 25.1705 145.175 25.1705ZM166.659 17.5568V30H159.713V8.18182H166.319V12.1875H166.56C167.043 10.8523 167.867 9.80587 169.032 9.0483C170.196 8.28125 171.584 7.89773 173.194 7.89773C174.728 7.89773 176.058 8.24337 177.185 8.93466C178.321 9.61648 179.202 10.5729 179.827 11.804C180.462 13.0256 180.774 14.4555 180.765 16.0938V30H173.819V17.4574C173.828 16.2453 173.52 15.2983 172.895 14.6165C172.28 13.9347 171.423 13.5938 170.324 13.5938C169.595 13.5938 168.951 13.7547 168.392 14.0767C167.843 14.3892 167.417 14.839 167.114 15.4261C166.82 16.0133 166.669 16.7235 166.659 17.5568Z" fill="black"/>
<path d="M185.065 30V0.90909H192.096V24.2898H204.199V30H185.065ZM213.989 30.3693C212.597 30.3693 211.361 30.1373 210.282 29.6733C209.212 29.1998 208.364 28.4896 207.739 27.5426C207.123 26.5862 206.816 25.3883 206.816 23.9489C206.816 22.7367 207.029 21.714 207.455 20.8807C207.881 20.0473 208.468 19.3703 209.216 18.8494C209.964 18.3286 210.826 17.9356 211.801 17.6705C212.777 17.3958 213.819 17.2112 214.926 17.1165C216.167 17.0028 217.166 16.8845 217.924 16.7614C218.681 16.6288 219.23 16.4441 219.571 16.2074C219.922 15.9612 220.097 15.6155 220.097 15.1705V15.0994C220.097 14.3703 219.846 13.8068 219.344 13.4091C218.842 13.0114 218.165 12.8125 217.313 12.8125C216.394 12.8125 215.656 13.0114 215.097 13.4091C214.538 13.8068 214.183 14.3561 214.032 15.0568L207.625 14.8295C207.815 13.5038 208.302 12.3201 209.088 11.2784C209.884 10.2273 210.973 9.40341 212.355 8.80682C213.748 8.20076 215.419 7.89773 217.37 7.89773C218.762 7.89773 220.045 8.06345 221.219 8.39489C222.393 8.71686 223.416 9.19034 224.287 9.81534C225.158 10.4309 225.831 11.1884 226.304 12.0881C226.787 12.9877 227.029 14.0152 227.029 15.1705V30H220.495V26.9602H220.324C219.936 27.6989 219.439 28.3239 218.833 28.8352C218.236 29.3466 217.531 29.7301 216.716 29.9858C215.911 30.2415 215.002 30.3693 213.989 30.3693ZM216.134 25.8239C216.882 25.8239 217.554 25.6723 218.151 25.3693C218.757 25.0663 219.24 24.6496 219.6 24.1193C219.96 23.5795 220.14 22.9545 220.14 22.2443V20.1705C219.941 20.2746 219.699 20.3693 219.415 20.4545C219.141 20.5398 218.837 20.6203 218.506 20.696C218.175 20.7718 217.834 20.8381 217.483 20.8949C217.133 20.9517 216.797 21.0038 216.475 21.0511C215.821 21.1553 215.263 21.3163 214.799 21.5341C214.344 21.7519 213.994 22.036 213.748 22.3864C213.511 22.7273 213.392 23.1345 213.392 23.608C213.392 24.3277 213.648 24.8769 214.159 25.2557C214.68 25.6345 215.338 25.8239 216.134 25.8239ZM231.276 30V0.90909H238.222V11.9176H238.364C238.648 11.2547 239.051 10.6155 239.571 10C240.102 9.38447 240.774 8.88258 241.588 8.49432C242.412 8.09659 243.397 7.89773 244.543 7.89773C246.058 7.89773 247.474 8.29545 248.79 9.09091C250.116 9.88636 251.186 11.1127 252 12.7699C252.815 14.4271 253.222 16.5388 253.222 19.1051C253.222 21.5767 252.829 23.6458 252.043 25.3125C251.266 26.9792 250.215 28.2292 248.89 29.0625C247.573 29.8958 246.11 30.3125 244.5 30.3125C243.402 30.3125 242.45 30.1326 241.645 29.7727C240.84 29.4129 240.163 28.9394 239.614 28.3523C239.074 27.7652 238.658 27.1354 238.364 26.4631H238.151V30H231.276ZM238.08 19.0909C238.08 20.2652 238.236 21.2879 238.549 22.1591C238.871 23.0303 239.33 23.7074 239.926 24.1903C240.533 24.6638 241.257 24.9006 242.1 24.9006C242.952 24.9006 243.676 24.6638 244.273 24.1903C244.87 23.7074 245.319 23.0303 245.623 22.1591C245.935 21.2879 246.091 20.2652 246.091 19.0909C246.091 17.9167 245.935 16.8987 245.623 16.0369C245.319 15.1752 244.87 14.5076 244.273 14.0341C243.686 13.5606 242.962 13.3239 242.1 13.3239C241.248 13.3239 240.523 13.5559 239.926 14.0199C239.33 14.4839 238.871 15.1468 238.549 16.0085C238.236 16.8703 238.08 17.8977 238.08 19.0909ZM275.91 14.8438L269.532 15.0142C269.466 14.5597 269.286 14.1572 268.993 13.8068C268.699 13.447 268.315 13.1676 267.842 12.9688C267.378 12.7604 266.838 12.6562 266.223 12.6562C265.418 12.6562 264.731 12.8172 264.163 13.1392C263.604 13.4612 263.33 13.8968 263.339 14.446C263.33 14.8722 263.5 15.2415 263.85 15.554C264.21 15.8665 264.85 16.1174 265.768 16.3068L269.973 17.1023C272.151 17.5189 273.77 18.2102 274.831 19.1761C275.901 20.142 276.44 21.4205 276.45 23.0114C276.44 24.5076 275.995 25.8097 275.115 26.9176C274.243 28.0256 273.05 28.8873 271.535 29.5028C270.02 30.1089 268.287 30.4119 266.336 30.4119C263.221 30.4119 260.763 29.7727 258.964 28.4943C257.174 27.2064 256.152 25.483 255.896 23.3239L262.757 23.1534C262.908 23.9489 263.301 24.5549 263.936 24.9716C264.57 25.3883 265.38 25.5966 266.365 25.5966C267.255 25.5966 267.979 25.4309 268.538 25.0994C269.097 24.768 269.381 24.3277 269.39 23.7784C269.381 23.286 269.163 22.893 268.737 22.5994C268.311 22.2964 267.643 22.0597 266.734 21.8892L262.927 21.1648C260.74 20.767 259.111 20.0331 258.041 18.9631C256.971 17.8835 256.44 16.5104 256.45 14.8438C256.44 13.3854 256.829 12.1402 257.615 11.108C258.401 10.0663 259.518 9.27083 260.967 8.72159C262.416 8.17235 264.125 7.89773 266.095 7.89773C269.049 7.89773 271.379 8.51799 273.083 9.75852C274.788 10.9896 275.73 12.6847 275.91 14.8438Z" fill="#F90000"/>
</svg>
