<svg width="56" height="56" viewBox="0 0 56 56" fill="none" xmlns="http://www.w3.org/2000/svg">
<path d="M22.1667 37.3333C17.9278 37.3333 14.3407 35.8649 11.4053 32.928C8.47 29.9911 7.00156 26.404 7 22.1667C7 17.9278 8.46844 14.3407 11.4053 11.4053C14.3422 8.47 17.9293 7.00156 22.1667 7C26.4056 7 29.9927 8.46844 32.928 11.4053C35.8633 14.3422 37.3318 17.9293 37.3333 22.1667C37.3333 23.8778 37.0611 25.4917 36.5167 27.0083C35.9722 28.525 35.2333 29.8667 34.3 31.0333L47.3667 44.1C47.7944 44.5278 48.0083 45.0722 48.0083 45.7333C48.0083 46.3944 47.7944 46.9389 47.3667 47.3667C46.9389 47.7944 46.3944 48.0083 45.7333 48.0083C45.0722 48.0083 44.5278 47.7944 44.1 47.3667L31.0333 34.3C29.8667 35.2333 28.525 35.9722 27.0083 36.5167C25.4917 37.0611 23.8778 37.3333 22.1667 37.3333ZM22.1667 32.6667C25.0833 32.6667 27.5629 31.6454 29.6053 29.603C31.6478 27.5606 32.6682 25.0818 32.6667 22.1667C32.6667 19.25 31.6454 16.7704 29.603 14.728C27.5606 12.6856 25.0818 11.6651 22.1667 11.6667C19.25 11.6667 16.7704 12.6879 14.728 14.7303C12.6856 16.7728 11.6651 19.2516 11.6667 22.1667C11.6667 25.0833 12.6879 27.5629 14.7303 29.6053C16.7728 31.6478 19.2516 32.6682 22.1667 32.6667Z" fill="#D60040"/>
</svg>
